# xmcd CD database file
#
# Track frame offsets:
#	150
#	48996
#	70658
#	102422
#
# Disc length: 2481 seconds
#
# Revision: 0
# Processed by: cddbd v1.5.2PL0 Copyright (c) Steve Scherf et al.
# Submitted via: CDex 1.51
#
DISCID=2e09af04
DTITLE=Sun Ra - Astro Black
DYEAR=1972
DGENRE=Jazz
TTITLE0=Astro Black
TTITLE1=Discipline 99
TTITLE2=Hidden Spheres
TTITLE3=The Cosmo-Fire
EXTD=YEAR: 1972
EXTT0=
EXTT1=
EXTT2=
EXTT3=
PLAYORDER=
